<svg width="28" height="26" viewBox="0 0 28 26" fill="none" xmlns="http://www.w3.org/2000/svg">
<path fill-rule="evenodd" clip-rule="evenodd" d="M8.33125 0.243504C9.7975 0.180504 10.265 0.166504 14 0.166504C17.735 0.166504 18.2025 0.181671 19.6675 0.243504C21.1325 0.305337 22.1325 0.523504 23.0075 0.83967C23.9237 1.16284 24.755 1.668 25.4425 2.32134C26.1425 2.96184 26.6825 3.7365 27.0275 4.59284C27.3675 5.4095 27.6 6.34284 27.6675 7.70784C27.735 9.07867 27.75 9.515 27.75 12.9998C27.75 16.4858 27.7337 16.9222 27.6675 18.2907C27.6012 19.6557 27.3675 20.589 27.0275 21.4057C26.6825 22.2621 26.1416 23.0381 25.4425 23.6795C24.755 24.3328 23.9237 24.8368 23.0075 25.1588C22.1325 25.4762 21.1325 25.6932 19.67 25.7562C18.2025 25.8192 17.735 25.8332 14 25.8332C10.265 25.8332 9.7975 25.818 8.33125 25.7562C6.86875 25.6943 5.86875 25.4762 4.99375 25.1588C4.07615 24.8368 3.24478 24.332 2.5575 23.6795C1.85797 23.0386 1.31664 22.263 0.97125 21.4068C0.6325 20.5902 0.4 19.6568 0.3325 18.2918C0.265 16.921 0.25 16.4847 0.25 12.9998C0.25 9.51384 0.26625 9.0775 0.3325 7.71017C0.39875 6.34284 0.6325 5.4095 0.97125 4.59284C1.31715 3.7366 1.8589 2.96104 2.55875 2.32017C3.24505 1.66742 4.07559 1.16219 4.9925 0.83967C5.8675 0.523504 6.8675 0.306504 8.33 0.243504H8.33125ZM19.5562 2.5535C18.1062 2.49167 17.6712 2.47884 14 2.47884C10.3287 2.47884 9.89375 2.49167 8.44375 2.5535C7.1025 2.61067 6.375 2.8195 5.89 2.99567C5.24875 3.229 4.79 3.5055 4.30875 3.95467C3.85256 4.3689 3.50148 4.87317 3.28125 5.4305C3.0925 5.88317 2.86875 6.56217 2.8075 7.814C2.74125 9.16734 2.7275 9.57334 2.7275 12.9998C2.7275 16.4263 2.74125 16.8323 2.8075 18.1857C2.86875 19.4375 3.0925 20.1165 3.28125 20.5692C3.50125 21.1257 3.8525 21.6308 4.30875 22.045C4.7525 22.4708 5.29375 22.7987 5.89 23.004C6.375 23.1802 7.1025 23.389 8.44375 23.4462C9.89375 23.508 10.3275 23.5208 14 23.5208C17.6725 23.5208 18.1062 23.508 19.5562 23.4462C20.8975 23.389 21.625 23.1802 22.11 23.004C22.7513 22.7707 23.21 22.4942 23.6912 22.045C24.1475 21.6308 24.4988 21.1257 24.7188 20.5692C24.9075 20.1165 25.1313 19.4375 25.1925 18.1857C25.2588 16.8323 25.2725 16.4263 25.2725 12.9998C25.2725 9.57334 25.2588 9.16734 25.1925 7.814C25.1313 6.56217 24.9075 5.88317 24.7188 5.4305C24.4688 4.832 24.1725 4.40384 23.6912 3.95467C23.2474 3.52892 22.7071 3.20125 22.11 2.99567C21.625 2.8195 20.8975 2.61067 19.5562 2.5535ZM12.2438 16.956C13.2246 17.3371 14.3167 17.3885 15.3337 17.1015C16.3506 16.8145 17.2292 16.2069 17.8195 15.3825C18.4098 14.558 18.6751 13.5679 18.5701 12.5811C18.465 11.5944 17.9963 10.6723 17.2437 9.97234C16.764 9.52489 16.184 9.18228 15.5454 8.96917C14.9068 8.75606 14.2255 8.67776 13.5506 8.73989C12.8757 8.80202 12.2239 9.00304 11.6423 9.32849C11.0606 9.65393 10.5634 10.0957 10.1866 10.622C9.80983 11.1483 9.56274 11.746 9.46314 12.3721C9.36355 12.9982 9.41394 13.6372 9.61067 14.2429C9.80741 14.8487 10.1456 15.4062 10.6009 15.8753C11.0562 16.3445 11.6173 16.7136 12.2438 16.956ZM9.0025 8.3355C9.65878 7.72297 10.4379 7.23709 11.2954 6.90559C12.1528 6.57409 13.0719 6.40347 14 6.40347C14.9281 6.40347 15.8472 6.57409 16.7046 6.90559C17.5621 7.23709 18.3412 7.72297 18.9975 8.3355C19.6538 8.94803 20.1744 9.67521 20.5295 10.4755C20.8847 11.2758 21.0675 12.1336 21.0675 12.9998C21.0675 13.8661 20.8847 14.7238 20.5295 15.5242C20.1744 16.3245 19.6538 17.0516 18.9975 17.6642C17.6721 18.9012 15.8744 19.5962 14 19.5962C12.1256 19.5962 10.3279 18.9012 9.0025 17.6642C7.67708 16.4271 6.93247 14.7493 6.93247 12.9998C6.93247 11.2504 7.67708 9.57256 9.0025 8.3355ZM22.635 7.38584C22.7976 7.24265 22.9278 7.07046 23.0179 6.87947C23.1079 6.68848 23.156 6.48257 23.1593 6.27392C23.1625 6.06528 23.1209 5.85814 23.0369 5.66478C22.9528 5.47142 22.828 5.29577 22.67 5.14822C22.5119 5.00067 22.3237 4.88422 22.1165 4.80577C21.9093 4.72733 21.6874 4.68848 21.4638 4.69152C21.2403 4.69456 21.0197 4.73943 20.815 4.82348C20.6104 4.90753 20.4259 5.02905 20.2725 5.18084C19.9741 5.47604 19.8108 5.86814 19.8171 6.27392C19.8235 6.6797 19.999 7.06719 20.3064 7.35415C20.6139 7.64111 21.0291 7.80494 21.4638 7.81085C21.8986 7.81677 22.3187 7.66431 22.635 7.38584Z" fill="#E4A951"/>
</svg>
