<svg width="27" height="24" viewBox="0 0 27 24" fill="none" xmlns="http://www.w3.org/2000/svg">
<path fill-rule="evenodd" clip-rule="evenodd" d="M14.0833 18H16.0521C21.0863 18 25.1667 14.2693 25.1667 9.66667C25.1667 5.064 21.0863 1.33333 16.0521 1.33333H10.9479C5.91375 1.33333 1.83333 5.064 1.83333 9.66667C1.83333 15.04 5.18458 18.2533 8.70938 20.1907C10.4783 21.1627 12.2604 21.7907 13.6065 22.1753C13.7727 22.2227 13.9324 22.2667 14.0833 22.3067V18ZM15.5417 24C15.5417 24 14.9846 23.914 14.0833 23.6913C10.2844 22.75 0.375 19.3667 0.375 9.66667C0.375 4.328 5.10875 0 10.9479 0H16.0521C21.8913 0 26.625 4.328 26.625 9.66667C26.625 15.0053 21.8913 19.3333 16.0521 19.3333H15.5417V24Z" fill="#555555"/>
<path fill-rule="evenodd" clip-rule="evenodd" d="M16.1914 4.32132C16.9424 4.77732 17.5082 5.51666 17.5082 6.50799C17.5082 7.55999 17.0445 8.33332 16.2927 8.80665C15.9959 8.99037 15.6684 9.12863 15.3229 9.21599V10.2373C15.3229 10.5025 15.2077 10.7569 15.0026 10.9444C14.7974 11.132 14.5192 11.2373 14.2292 11.2373C13.9391 11.2373 13.6609 11.132 13.4558 10.9444C13.2507 10.7569 13.1354 10.5025 13.1354 10.2373V8.37266C13.1354 8.11894 13.2408 7.87469 13.4303 7.68938C13.6199 7.50408 13.8794 7.39157 14.1563 7.37466C14.5602 7.34999 14.8665 7.27666 15.0509 7.15999C15.1257 7.1147 15.1861 7.05214 15.2259 6.97866C15.2697 6.89866 15.3207 6.75599 15.3207 6.50732C15.3207 6.29866 15.2318 6.13932 14.9802 5.98599C14.6944 5.81266 14.235 5.68466 13.683 5.66866C13.1376 5.65266 12.6075 5.74999 12.2174 5.92266C11.8266 6.09599 11.6829 6.29066 11.6428 6.43399C11.6071 6.5612 11.5443 6.68073 11.4581 6.78575C11.3718 6.89078 11.2638 6.97925 11.1402 7.04611C11.0165 7.11297 10.8797 7.1569 10.7375 7.17541C10.5953 7.19392 10.4505 7.18665 10.3114 7.15399C10.1722 7.12133 10.0415 7.06394 9.92661 6.98509C9.81174 6.90624 9.71498 6.80748 9.64185 6.69444C9.56872 6.5814 9.52067 6.4563 9.50042 6.32628C9.48018 6.19626 9.48814 6.06386 9.52386 5.93666C9.77542 5.04266 10.5068 4.45866 11.2636 4.12332C12.022 3.78666 12.9138 3.64466 13.7523 3.66932C14.5857 3.69332 15.4753 3.88532 16.1914 4.32132Z" fill="#555555"/>
<path d="M15.6875 14C15.6875 14.3536 15.5339 14.6928 15.2604 14.9428C14.9869 15.1928 14.6159 15.3333 14.2292 15.3333C13.8424 15.3333 13.4715 15.1928 13.198 14.9428C12.9245 14.6928 12.7708 14.3536 12.7708 14C12.7708 13.6464 12.9245 13.3072 13.198 13.0572C13.4715 12.8071 13.8424 12.6667 14.2292 12.6667C14.6159 12.6667 14.9869 12.8071 15.2604 13.0572C15.5339 13.3072 15.6875 13.6464 15.6875 14Z" fill="#555555"/>
</svg>
