<svg width="29" height="40" viewBox="0 0 29 40" fill="none" xmlns="http://www.w3.org/2000/svg">
<g clip-path="url(#clip0_14_827)">
<path d="M14.9284 19.9622L15.0384 19.9197M14.9284 19.9622L14.8725 19.9505L15.0384 19.9197M14.9284 19.9622L14.9284 19.9622M14.9284 19.9622L14.9284 19.9622M15.0384 19.9197L15.0138 19.9802L14.9284 19.9622M15.0384 19.9197L14.9284 19.9622M14.9284 19.9622L14.8984 19.9739L14.9284 19.9622ZM4.70068 2.87408L4.31278 2.60177H4.15987C3.86484 2.50357 3.54004 2.47031 3.20441 2.52537C2.6606 2.61459 2.23381 2.91067 1.94329 3.24991L3.08259 4.22561L1.94329 3.24991C1.65559 3.58585 1.48282 3.98007 1.39666 4.36029C1.30984 4.74343 1.30283 5.14525 1.37438 5.52975C1.37442 5.52992 1.37445 5.5301 1.37448 5.53028C1.37451 5.53043 1.37454 5.53058 1.37457 5.53073L3.45764 16.7437L3.45767 16.7439C3.52872 17.1261 3.6837 17.5223 3.94885 17.867C4.21511 18.2131 4.61498 18.531 5.14273 18.6581L5.14744 18.6592L10.7945 19.9999L5.20069 21.3284L5.20036 21.3284C4.67106 21.4543 4.2697 21.7721 4.00248 22.1186C3.7364 22.4637 3.58094 22.8605 3.50968 23.2432L3.50959 23.2437L1.3744 34.7337L1.3741 34.7354C1.30312 35.1197 1.31058 35.5213 1.39783 35.9042C1.48434 36.2839 1.65732 36.6775 1.94501 37.0129L3.01122 36.0982L1.94502 37.0129C2.23553 37.3515 2.66197 37.6469 3.20508 37.7359C3.76091 37.827 4.28712 37.6759 4.69753 37.3887L4.69924 37.3875L26.2561 22.2555L26.2562 22.2554C26.6412 21.9852 26.898 21.6181 27.0548 21.2592C27.213 20.8967 27.286 20.5074 27.286 20.1308C27.286 19.7541 27.213 19.3648 27.0548 19.0024C26.898 18.6434 26.6412 18.2764 26.2562 18.0061L26.2562 18.0061L4.70068 2.87408Z" fill="#1B5AD3" stroke="black" stroke-width="3"/>
</g>
<defs>
<clipPath id="clip0_14_827">
<rect width="28.0762" height="40" fill="white" transform="translate(0.019043)"/>
</clipPath>
</defs>
</svg>
