<svg width="50" height="47" viewBox="0 0 50 47" fill="none" xmlns="http://www.w3.org/2000/svg">
<path d="M10.4167 13.7085H39.1458C39.7279 13.7085 40.3036 13.8232 40.8357 14.0451C41.3678 14.2671 41.8445 14.5914 42.2351 14.9971C42.6257 15.4028 42.9215 15.881 43.1035 16.4008C43.2855 16.9205 43.3496 17.4704 43.2917 18.0149L42.0417 29.7649C41.9388 30.7313 41.4577 31.6274 40.6916 32.2791C39.9255 32.9309 38.9291 33.2918 37.8958 33.2918H18C17.0364 33.2922 16.1024 32.9786 15.3572 32.4044C14.6119 31.8303 14.1014 31.031 13.9125 30.1428L10.4167 13.7085Z" stroke="#555555" stroke-width="2" stroke-linejoin="round"/>
<path d="M10.4167 13.7083L8.72916 7.35746C8.6163 6.93398 8.35614 6.55808 7.99001 6.28949C7.62387 6.0209 7.17276 5.87501 6.70832 5.875H4.16666" stroke="#555555" stroke-width="2" stroke-linecap="round" stroke-linejoin="round"/>
<path d="M16.6667 41.125H20.8333" stroke="#555555" stroke-width="2" stroke-linecap="round" stroke-linejoin="round"/>
<path d="M33.3333 41.125H37.5" stroke="#555555" stroke-width="2" stroke-linecap="round" stroke-linejoin="round"/>
</svg>
