<svg width="50" height="47" viewBox="0 0 50 47" fill="none" xmlns="http://www.w3.org/2000/svg">
<path d="M34.375 38.1875H25V29.375H31.25V26.4375H25V23.5H34.375V32.3125H28.125V35.25H34.375V38.1875Z" fill="#555555"/>
<path d="M40.1563 13.6594L29.2188 3.37815C29.0813 3.23465 28.9122 3.12092 28.7234 3.04484C28.5346 2.96876 28.3304 2.93215 28.125 2.93753H12.5C11.672 2.93985 10.8785 3.25009 10.293 3.80047C9.70751 4.35086 9.37747 5.09667 9.375 5.87503V41.125C9.37747 41.9034 9.70751 42.6492 10.293 43.1996C10.8785 43.75 11.672 44.0602 12.5 44.0625H37.5C38.328 44.0602 39.1215 43.75 39.707 43.1996C40.2925 42.6492 40.6225 41.9034 40.625 41.125V14.6875C40.6307 14.4945 40.5918 14.3026 40.5108 14.125C40.4299 13.9475 40.3089 13.7887 40.1563 13.6594ZM28.125 6.46253L36.875 14.6875H28.125V6.46253ZM37.5 41.125H12.5V5.87503H25V14.6875C25.0025 15.4659 25.3325 16.2117 25.918 16.7621C26.5035 17.3125 27.297 17.6227 28.125 17.625H37.5V41.125Z" fill="#555555"/>
</svg>
