<svg width="37" height="22" viewBox="0 0 37 22" fill="none" xmlns="http://www.w3.org/2000/svg">
<path d="M23.8613 2.0707H32.6284V4.05585H23.8613V2.0707ZM15.0767 9.92518C17.0146 9.05975 18.0298 7.74315 18.0298 5.70878C18.0298 1.68515 14.8218 0.708984 11.1172 0.708984H0.921875V20.905H11.4028C15.3315 20.905 19.0186 19.1414 19.0186 15.0398C19.0186 12.5051 17.7354 10.6306 15.0767 9.92518ZM5.67676 4.15429H10.1372C11.8555 4.15429 13.3979 4.60136 13.3979 6.46347C13.3979 8.17792 12.1982 8.86698 10.4976 8.86698H5.67676V4.15429ZM10.7524 17.4761H5.67236V11.9144H10.8535C12.9453 11.9144 14.2681 12.7306 14.2681 14.7978C14.2681 16.8322 12.6904 17.4761 10.7524 17.4761ZM36.0562 13.8053C36.0562 9.47811 33.3447 5.87284 28.4404 5.87284C23.6724 5.87284 20.4292 9.22381 20.4292 13.6166C20.4292 18.1693 23.501 21.2947 28.4404 21.2947C32.1802 21.2947 34.6016 19.7238 35.7661 16.3728H31.9736C31.5605 17.6238 29.8818 18.28 28.5767 18.28C26.0542 18.28 24.7358 16.9019 24.7358 14.5599H36.0254C36.0386 14.3179 36.0562 14.0637 36.0562 13.8053ZM24.7358 12.0252C24.8721 10.1015 26.2476 8.89979 28.3042 8.89979C30.4663 8.89979 31.5474 10.0851 31.7363 12.0252H24.7358Z" fill="#9747FF"/>
</svg>
