<svg width="50" height="47" viewBox="0 0 50 47" fill="none" xmlns="http://www.w3.org/2000/svg">
<path d="M6.25 35.25H21.875V38.1875H6.25V35.25Z" fill="#555555"/>
<path d="M6.25 26.4375H21.875V29.375H6.25V26.4375Z" fill="#555555"/>
<path d="M40.625 20.5625H9.375C8.5462 20.5625 7.75134 20.253 7.16529 19.7021C6.57924 19.1512 6.25 18.4041 6.25 17.625V8.8125C6.25 8.03343 6.57924 7.28626 7.16529 6.73537C7.75134 6.18449 8.5462 5.875 9.375 5.875H40.625C41.4538 5.875 42.2487 6.18449 42.8347 6.73537C43.4208 7.28626 43.75 8.03343 43.75 8.8125V17.625C43.75 18.4041 43.4208 19.1512 42.8347 19.7021C42.2487 20.253 41.4538 20.5625 40.625 20.5625ZM9.375 8.8125V17.625H40.625V8.8125H9.375Z" fill="#555555"/>
<path d="M40.625 41.125H31.25C30.4212 41.125 29.6263 40.8155 29.0403 40.2646C28.4542 39.7137 28.125 38.9666 28.125 38.1875V29.375C28.125 28.5959 28.4542 27.8488 29.0403 27.2979C29.6263 26.747 30.4212 26.4375 31.25 26.4375H40.625C41.4538 26.4375 42.2487 26.747 42.8347 27.2979C43.4208 27.8488 43.75 28.5959 43.75 29.375V38.1875C43.75 38.9666 43.4208 39.7137 42.8347 40.2646C42.2487 40.8155 41.4538 41.125 40.625 41.125ZM31.25 29.375V38.1875H40.625V29.375H31.25Z" fill="#555555"/>
</svg>
