<svg width="50" height="47" viewBox="0 0 50 47" fill="none" xmlns="http://www.w3.org/2000/svg">
<path d="M12.5 15.2746C12.5 14.963 12.6317 14.6641 12.8661 14.4438C13.1005 14.2234 13.4185 14.0996 13.75 14.0996H31.25C31.5815 14.0996 31.8995 14.2234 32.1339 14.4438C32.3683 14.6641 32.5 14.963 32.5 15.2746C32.5 15.5862 32.3683 15.8851 32.1339 16.1055C31.8995 16.3258 31.5815 16.4496 31.25 16.4496H13.75C13.4185 16.4496 13.1005 16.3258 12.8661 16.1055C12.6317 15.8851 12.5 15.5862 12.5 15.2746Z" fill="#555555"/>
<path d="M26.25 21.1499C25.9185 21.1499 25.6005 21.2737 25.3661 21.4941C25.1317 21.7144 25 22.0133 25 22.3249C25 22.6365 25.1317 22.9354 25.3661 23.1558C25.6005 23.3761 25.9185 23.4999 26.25 23.4999H31.25C31.5815 23.4999 31.8995 23.3761 32.1339 23.1558C32.3683 22.9354 32.5 22.6365 32.5 22.3249C32.5 22.0133 32.3683 21.7144 32.1339 21.4941C31.8995 21.2737 31.5815 21.1499 31.25 21.1499H26.25Z" fill="#555555"/>
<path d="M25 29.3747C25 29.0631 25.1317 28.7642 25.3661 28.5439C25.6005 28.3235 25.9185 28.1997 26.25 28.1997H31.25C31.5815 28.1997 31.8995 28.3235 32.1339 28.5439C32.3683 28.7642 32.5 29.0631 32.5 29.3747C32.5 29.6863 32.3683 29.9852 32.1339 30.2056C31.8995 30.4259 31.5815 30.5497 31.25 30.5497H26.25C25.9185 30.5497 25.6005 30.4259 25.3661 30.2056C25.1317 29.9852 25 29.6863 25 29.3747Z" fill="#555555"/>
<path d="M13.75 21.1499C13.4185 21.1499 13.1005 21.2737 12.8661 21.4941C12.6317 21.7144 12.5 22.0133 12.5 22.3249V29.3749C12.5 29.6865 12.6317 29.9854 12.8661 30.2058C13.1005 30.4261 13.4185 30.5499 13.75 30.5499H21.25C21.5815 30.5499 21.8995 30.4261 22.1339 30.2058C22.3683 29.9854 22.5 29.6865 22.5 29.3749V22.3249C22.5 22.0133 22.3683 21.7144 22.1339 21.4941C21.8995 21.2737 21.5815 21.1499 21.25 21.1499H13.75ZM15 28.1999V23.4999H20V28.1999H15Z" fill="#555555"/>
<path d="M5 11.7498C5 10.5033 5.52678 9.30782 6.46447 8.4264C7.40215 7.54498 8.67392 7.0498 10 7.0498H35C36.3261 7.0498 37.5979 7.54498 38.5355 8.4264C39.4732 9.30782 40 10.5033 40 11.7498V14.0998C41.3261 14.0998 42.5979 14.595 43.5355 15.4764C44.4732 16.3578 45 17.5533 45 18.7998V31.7248C45 33.2829 44.3415 34.7773 43.1694 35.8791C41.9973 36.9808 40.4076 37.5998 38.75 37.5998H11.25C9.5924 37.5998 8.00269 36.9808 6.83058 35.8791C5.65848 34.7773 5 33.2829 5 31.7248V11.7498ZM37.5 11.7498C37.5 11.1265 37.2366 10.5288 36.7678 10.0881C36.2989 9.64739 35.663 9.3998 35 9.3998H10C9.33696 9.3998 8.70107 9.64739 8.23223 10.0881C7.76339 10.5288 7.5 11.1265 7.5 11.7498V31.7248C7.5 32.6597 7.89509 33.5563 8.59835 34.2174C9.30161 34.8784 10.2554 35.2498 11.25 35.2498H38.75C39.7446 35.2498 40.6984 34.8784 41.4016 34.2174C42.1049 33.5563 42.5 32.6597 42.5 31.7248V18.7998C42.5 18.1765 42.2366 17.5788 41.7678 17.1381C41.2989 16.6974 40.663 16.4498 40 16.4498V31.7248C40 32.0364 39.8683 32.3353 39.6339 32.5557C39.3995 32.776 39.0815 32.8998 38.75 32.8998C38.4185 32.8998 38.1005 32.776 37.8661 32.5557C37.6317 32.3353 37.5 32.0364 37.5 31.7248V11.7498Z" fill="#555555"/>
</svg>
