<svg width="34" height="26" viewBox="0 0 34 26" fill="none" xmlns="http://www.w3.org/2000/svg">
<path d="M33.4794 3.58293C32.2617 4.07627 30.9535 4.4096 29.5783 4.56027C30.9973 3.78399 32.0589 2.56222 32.565 1.12293C31.2319 1.84692 29.7728 2.35653 28.2512 2.6296C27.2281 1.63075 25.8728 0.9687 24.3959 0.746231C22.919 0.523761 21.4031 0.753321 20.0835 1.39927C18.7639 2.04522 17.7145 3.07141 17.0981 4.31854C16.4818 5.56566 16.3331 6.96393 16.675 8.29626C13.9737 8.17226 11.3311 7.53033 8.91874 6.41214C6.50636 5.29395 4.3781 3.72448 2.67208 1.8056C2.08875 2.7256 1.75333 3.79227 1.75333 4.92827C1.75268 5.95093 2.02813 6.95792 2.55524 7.85991C3.08235 8.76189 3.84482 9.53098 4.775 10.0989C3.69623 10.0675 2.64127 9.80104 1.69791 9.3216V9.4016C1.6978 10.8359 2.24046 12.2261 3.23381 13.3363C4.22715 14.4464 5.61 15.2082 7.14771 15.4923C6.14697 15.7399 5.09778 15.7764 4.07937 15.5989C4.51322 16.8331 5.35832 17.9123 6.49637 18.6855C7.63441 19.4587 9.00842 19.8872 10.426 19.9109C8.01955 21.6381 5.04754 22.575 1.98812 22.5709C1.44618 22.5711 0.904691 22.5421 0.366455 22.4843C3.47194 24.3098 7.08695 25.2787 10.779 25.2749C23.2769 25.2749 30.1092 15.8109 30.1092 7.60293C30.1092 7.33626 30.1019 7.06693 30.0888 6.80026C31.4177 5.92156 32.5649 4.83346 33.4765 3.58693L33.4794 3.58293Z" fill="#1EDAF3"/>
</svg>
